<svg width="13" height="13" viewBox="0 0 13 13" fill="none" xmlns="http://www.w3.org/2000/svg">
<circle cx="6.5" cy="6.67676" r="5.5" fill="#111111" stroke="#C4C4C4"/>
<path d="M6.08091 10.0771V4.6226H6.91898V10.0771H6.08091ZM6.50705 3.71351C6.3437 3.71351 6.20283 3.65788 6.08446 3.54661C5.96846 3.43534 5.91046 3.30158 5.91046 3.14533C5.91046 2.98908 5.96846 2.85532 6.08446 2.74405C6.20283 2.63278 6.3437 2.57715 6.50705 2.57715C6.6704 2.57715 6.81008 2.63278 6.92608 2.74405C7.04445 2.85532 7.10364 2.98908 7.10364 3.14533C7.10364 3.30158 7.04445 3.43534 6.92608 3.54661C6.81008 3.65788 6.6704 3.71351 6.50705 3.71351Z" fill="white"/>
</svg>
